<svg xmlns="http://www.w3.org/2000/svg" viewBox="0 0 48.74 17.26" class="gs-logo"><defs><style>.a{isolation:isolate;}.b{fill:#1b75bc;}.c{mix-blend-mode:multiply;}.d{fill:#231f20;}.e{fill:#939598;}.f{fill:#808285;}.g{opacity:0.65;}.h{fill:#6d6e71;}</style></defs><title>Grant Solutions Logo</title><g class="a"><path class="b" d="M22.73,2.45a10.09,10.09,0,0,1,1.41-.29c2.06-.28,3.77.1,3.81.85s-1.6,1.57-3.66,1.85a6.66,6.66,0,0,1-3.19-.21c.5.73,2.19,1.1,4.17.83,2.33-.31,4.18-1.39,4.13-2.4s-2-1.58-4.32-1.26A9,9,0,0,0,22.73,2.45Z"></path><g class="c"><path class="d" d="M25.07,1.83a9.69,9.69,0,0,0-1.4.29c.26-.06.53-.11.8-.14,2.33-.31,4.27.25,4.32,1.26,0,.8-1.1,1.63-2.73,2.1C28,4.92,29.44,4,29.39,3.09S27.4,1.52,25.07,1.83Z"></path></g><path class="b" d="M26.43,3.31A11.69,11.69,0,0,1,25,3.56c-2.14.22-3.9-.15-3.92-.84s1.7-1.42,3.84-1.64a7.71,7.71,0,0,1,3.3.24c-.5-.68-2.24-1-4.3-.83-2.42.25-4.36,1.21-4.34,2.13s2,1.48,4.44,1.23A10.36,10.36,0,0,0,26.43,3.31Z"></path><g class="c"><path class="e" d="M24.58,3.77c-2.42.25-4.41-.3-4.44-1.23S21.73.83,23.85.49c-2.41.26-4.33,1.21-4.3,2.13s2,1.48,4.44,1.23l.62-.08Z"></path></g><path class="f" d="M29.52,2.41a1.43,1.43,0,0,1,.23.61c.12,1.67-2.39,3-5.34,3S19.05,4.7,19,3s2.2-2.92,5-3h-.38c-3.48,0-6.31,1.61-6.3,3.58s2.83,3.56,6.31,3.55S30,5.52,30,3.55A1.41,1.41,0,0,0,29.52,2.41Z"></path><g class="c"><path class="d" d="M18,3.58C18,1.67,20.66.11,24,0h-.32c-3.48,0-6.31,1.61-6.3,3.58s2.83,3.56,6.31,3.55H24C20.66,7,18,5.48,18,3.58Z"></path></g><path class="d" d="M4.17,10.91h.61V14a1.64,1.64,0,0,1-.36.13L4,14.25l-.49.05-.49,0a3.41,3.41,0,0,1-1.19-.2,2.56,2.56,0,0,1-1-.61,2.87,2.87,0,0,1-.63-1A4,4,0,0,1,0,11.08,4.26,4.26,0,0,1,.22,9.65,3.05,3.05,0,0,1,.84,8.59a2.65,2.65,0,0,1,.94-.66,3,3,0,0,1,1.17-.23,4.83,4.83,0,0,1,.94.08q.37.08.61.15a1.88,1.88,0,0,1,0,.28,2.28,2.28,0,0,1-.09.27,4.66,4.66,0,0,0-.53-.15A3.84,3.84,0,0,0,3,8.25,2.26,2.26,0,0,0,2,8.44,2,2,0,0,0,1.31,9a2.67,2.67,0,0,0-.48.89,3.8,3.8,0,0,0-.17,1.19,3.41,3.41,0,0,0,.19,1.19,2.35,2.35,0,0,0,.51.83,2,2,0,0,0,.75.49,2.63,2.63,0,0,0,.92.16,6,6,0,0,0,.67,0,2.06,2.06,0,0,0,.47-.1Z"></path><path class="d" d="M5.28,9.68h.53q0,.16,0,.38t0,.4a1.62,1.62,0,0,1,.5-.56,1.43,1.43,0,0,1,.85-.23h.2a1.64,1.64,0,0,1,0,.29,1.4,1.4,0,0,1,0,.28H7.2a1.28,1.28,0,0,0-1,.38,1.81,1.81,0,0,0-.37,1.27v2.33H5.28Z"></path><path class="d" d="M10,11.22a1.16,1.16,0,0,0-.28-.86,1.12,1.12,0,0,0-.82-.27,4,4,0,0,0-.65,0,4.08,4.08,0,0,0-.53.12A.84.84,0,0,1,7.64,10a1.41,1.41,0,0,1,0-.29,3.86,3.86,0,0,1,.57-.12,4.86,4.86,0,0,1,.69,0,1.87,1.87,0,0,1,1.28.38,1.53,1.53,0,0,1,.42,1.19v3l-.76.12a6.12,6.12,0,0,1-.85.06A2.26,2.26,0,0,1,7.66,14a1.21,1.21,0,0,1-.48-1.07,1.42,1.42,0,0,1,.14-.64,1.34,1.34,0,0,1,.38-.47,1.7,1.7,0,0,1,.59-.29,2.73,2.73,0,0,1,.75-.1l.55,0,.38,0ZM10,12,9.6,12l-.43,0a1.82,1.82,0,0,0-1,.25.81.81,0,0,0-.37.71.88.88,0,0,0,.11.47.74.74,0,0,0,.29.27,1.21,1.21,0,0,0,.39.12,3,3,0,0,0,.43,0l.52,0,.47-.07Z"></path><path class="d" d="M11,9.68h.53q0,.16,0,.4t0,.42a1.94,1.94,0,0,1,.23-.33,1.8,1.8,0,0,1,.33-.3,1.75,1.75,0,0,1,.44-.22,1.68,1.68,0,0,1,.54-.08,1.34,1.34,0,0,1,1.14.47,2.13,2.13,0,0,1,.36,1.31v2.87H14V11.53a1.91,1.91,0,0,0-.24-1.09.81.81,0,0,0-.71-.33,1.41,1.41,0,0,0-.59.12,1.35,1.35,0,0,0-.48.36,1.74,1.74,0,0,0-.32.58,2.5,2.5,0,0,0-.12.79v2.24H11Z"></path><path class="d" d="M15.39,10.17h-.77a.88.88,0,0,1,0-.12s0-.09,0-.14,0-.09,0-.13a.86.86,0,0,1,0-.11h.77V8.82l.55-.54h0v1.4h1.23a.92.92,0,0,1,0,.11s0,.09,0,.13,0,.1,0,.14a.93.93,0,0,1,0,.12H16v3a.87.87,0,0,0,.06.35.5.5,0,0,0,.15.2.49.49,0,0,0,.21.09l.24,0a1.66,1.66,0,0,0,.54-.08,3.12,3.12,0,0,1,.09.5,2.57,2.57,0,0,1-.75.1A1.22,1.22,0,0,1,15.7,14a1.11,1.11,0,0,1-.32-.89Z"></path><path class="b" d="M21.33,11.66a1.67,1.67,0,0,0-.39-.53,2.44,2.44,0,0,0-.58-.39c-.22-.11-.45-.21-.71-.31l-.51-.22a2.11,2.11,0,0,1-.4-.23.92.92,0,0,1-.25-.28.77.77,0,0,1-.09-.38.91.91,0,0,1,.29-.7,1.44,1.44,0,0,1,1-.28,4.16,4.16,0,0,1,1.18.18l.08,0,0-.08a2.4,2.4,0,0,0,.08-.27q0-.14.05-.28V7.83l-.07,0-.24-.06-.33-.06-.38,0-.4,0a2.37,2.37,0,0,0-1.58.47,1.55,1.55,0,0,0-.55,1.23,1.67,1.67,0,0,0,.13.71,1.5,1.5,0,0,0,.36.49,2.16,2.16,0,0,0,.52.34c.19.09.39.18.6.25s.53.22.72.31a1.78,1.78,0,0,1,.43.29.83.83,0,0,1,.21.32,1.32,1.32,0,0,1,.06.43,1.24,1.24,0,0,1-.09.48,1,1,0,0,1-.27.38,1.39,1.39,0,0,1-.48.26,2.25,2.25,0,0,1-.71.1l-.46,0-.36-.06L18,13.5l-.26-.08-.08,0,0,.07a2.45,2.45,0,0,0-.1.29,2.13,2.13,0,0,0-.07.3v.07l.07,0c.2.07.43.13.66.18a4.3,4.3,0,0,0,.89.08,3.56,3.56,0,0,0,1-.13,2.21,2.21,0,0,0,.77-.39,1.75,1.75,0,0,0,.49-.64,2.06,2.06,0,0,0,.17-.86A1.76,1.76,0,0,0,21.33,11.66Z"></path><path class="b" d="M25.72,11a2.31,2.31,0,0,0-.4-.79,1.88,1.88,0,0,0-.66-.53,2.12,2.12,0,0,0-.92-.19,2.14,2.14,0,0,0-.93.19,1.87,1.87,0,0,0-.67.53,2.26,2.26,0,0,0-.39.79,3.66,3.66,0,0,0,0,1.92,2.26,2.26,0,0,0,.39.79,1.87,1.87,0,0,0,.67.53,2.15,2.15,0,0,0,.93.19,2.12,2.12,0,0,0,.92-.19,1.88,1.88,0,0,0,.66-.53,2.32,2.32,0,0,0,.4-.79,3.54,3.54,0,0,0,0-1.92Zm-.66,1a2.25,2.25,0,0,1-.34,1.31,1.3,1.3,0,0,1-2,0,2.25,2.25,0,0,1-.34-1.31,2.25,2.25,0,0,1,.34-1.31,1.3,1.3,0,0,1,2,0A2.25,2.25,0,0,1,25.06,11.95Z"></path><path class="b" d="M27.82,14.21q0-.11,0-.24a1.05,1.05,0,0,0-.07-.25l0-.07-.07,0-.17,0a1.27,1.27,0,0,1-.36,0,.3.3,0,0,1-.14-.06.34.34,0,0,1-.1-.15.89.89,0,0,1,0-.33V7.6H26v5.7a1.3,1.3,0,0,0,.1.54.87.87,0,0,0,.26.34.93.93,0,0,0,.37.17,1.89,1.89,0,0,0,.39,0l.3,0a1.36,1.36,0,0,0,.3-.07l.06,0Z"></path><path class="b" d="M31.24,9.59h-.69v4l-.33.06a3.86,3.86,0,0,1-.51,0,2.57,2.57,0,0,1-.6-.06,1,1,0,0,1-.43-.22A1,1,0,0,1,28.4,13a2.57,2.57,0,0,1-.09-.76V9.6h-.77v2.67a2.94,2.94,0,0,0,.17,1.08,1.64,1.64,0,0,0,.46.66,1.56,1.56,0,0,0,.68.33,3.81,3.81,0,0,0,.81.08,5.25,5.25,0,0,0,.85-.07c.27,0,.52-.1.74-.16l.07,0V9.6Z"></path><path class="b" d="M34.46,8.57v.07h.91V8.57q0-.08,0-.2t0-.2s0-.11,0-.18,0-.14,0-.19V7.73h-.91V7.8s0,.11,0,.19,0,.13,0,.18,0,.12,0,.2S34.46,8.52,34.46,8.57Z"></path><path class="b" d="M33.08,9.59V8.19h-.16l-.61.6v.8h-.76v.07a1,1,0,0,0,0,.12s0,.09,0,.14,0,.1,0,.15a.94.94,0,0,0,0,.13v.07h.76v2.89a1.2,1.2,0,0,0,.35,1,1.31,1.31,0,0,0,.88.29,2.67,2.67,0,0,0,.77-.1l.07,0v-.07a3.23,3.23,0,0,0-.09-.51l0-.09-.09,0a1.58,1.58,0,0,1-.51.08l-.23,0a.41.41,0,0,1-.18-.08.42.42,0,0,1-.12-.17.8.8,0,0,1-.05-.32V10.26h1.67v4h.77V9.59Z"></path><path class="b" d="M39.82,11a2.31,2.31,0,0,0-.4-.79,1.88,1.88,0,0,0-.66-.53,2.12,2.12,0,0,0-.92-.19,2.14,2.14,0,0,0-.93.19,1.87,1.87,0,0,0-.67.53,2.25,2.25,0,0,0-.39.79,3.66,3.66,0,0,0,0,1.92,2.26,2.26,0,0,0,.39.79,1.87,1.87,0,0,0,.67.53,2.15,2.15,0,0,0,.93.19,2.12,2.12,0,0,0,.92-.19,1.88,1.88,0,0,0,.66-.53,2.32,2.32,0,0,0,.4-.79,3.54,3.54,0,0,0,0-1.92Zm-.66,1a2.25,2.25,0,0,1-.34,1.31,1.3,1.3,0,0,1-2,0,2.25,2.25,0,0,1-.34-1.31,2.25,2.25,0,0,1,.34-1.31,1.3,1.3,0,0,1,2,0A2.25,2.25,0,0,1,39.15,11.95Z"></path><path class="b" d="M43.55,10a1.43,1.43,0,0,0-1.21-.5,1.77,1.77,0,0,0-.57.09,1.84,1.84,0,0,0-.46.23,1.9,1.9,0,0,0-.35.31l-.08.1v-.13c0-.17,0-.3,0-.41V9.6h-.7v4.7h.77V12a2.43,2.43,0,0,1,.11-.76,1.66,1.66,0,0,1,.3-.55,1.26,1.26,0,0,1,.45-.34,1.33,1.33,0,0,1,.55-.12.72.72,0,0,1,.64.29,1.84,1.84,0,0,1,.22,1v2.77h.77V11.35A2.22,2.22,0,0,0,43.55,10Z"></path><path class="b" d="M47.19,12.29a1.31,1.31,0,0,0-.35-.41,1.9,1.9,0,0,0-.47-.26l-.49-.18-.34-.11a1.41,1.41,0,0,1-.28-.14.58.58,0,0,1-.18-.18.44.44,0,0,1-.06-.24.54.54,0,0,1,.2-.43,1.13,1.13,0,0,1,.71-.17,2.78,2.78,0,0,1,.58.06l.47.12.09,0,0-.09a3.85,3.85,0,0,0,.13-.52V9.71l-.07,0a3,3,0,0,0-.52-.14,3.69,3.69,0,0,0-.69-.06,2,2,0,0,0-1.28.36,1.2,1.2,0,0,0-.43.95,1.07,1.07,0,0,0,.41.89,1.59,1.59,0,0,0,.41.24l.45.16.4.14a1.36,1.36,0,0,1,.33.16.76.76,0,0,1,.22.23.68.68,0,0,1,.08.35.62.62,0,0,1-.28.51,1.29,1.29,0,0,1-.79.22,3.19,3.19,0,0,1-.58-.06,2.58,2.58,0,0,1-.49-.13l-.08,0,0,.08a2.75,2.75,0,0,0-.17.55v.07l.07,0a2.36,2.36,0,0,0,.56.15,5,5,0,0,0,.78.05,2.49,2.49,0,0,0,.73-.1,1.76,1.76,0,0,0,.58-.3,1.37,1.37,0,0,0,.39-.48,1.4,1.4,0,0,0,.14-.62A1.27,1.27,0,0,0,47.19,12.29Z"></path><g class="g"><path class="h" d="M3.7,15.53l.22,0h.22l.24,0a.6.6,0,0,1,.22.09.48.48,0,0,1,.16.18.64.64,0,0,1,.06.3.63.63,0,0,1-.06.3.5.5,0,0,1-.16.18.58.58,0,0,1-.22.09l-.24,0H4v.55H3.7ZM4,16.4h.11l.12,0,.1-.05a.25.25,0,0,0,.07-.09.35.35,0,0,0,0-.14.37.37,0,0,0,0-.15.26.26,0,0,0-.07-.1l-.1-.05-.12,0H4Z"></path><path class="h" d="M6,15.54h.39L7,17.24H6.59l-.09-.34H5.93l-.1.34H5.5Zm.38,1.07-.2-.71L6,16.61Z"></path><path class="h" d="M7.73,15.54l.19,0h.2l.26,0a.69.69,0,0,1,.23.08.47.47,0,0,1,.16.16.5.5,0,0,1,.06.26.54.54,0,0,1,0,.17.51.51,0,0,1-.06.13l-.08.09-.08.06,0,0,.41.72H8.58l-.44-.79.06,0,.08,0,.09-.07a.36.36,0,0,0,.07-.09.31.31,0,0,0-.05-.35.34.34,0,0,0-.22-.07H8.07v1.43H7.73Z"></path><path class="h" d="M10,15.83H9.58a.76.76,0,0,1,0-.15.73.73,0,0,1,0-.14h1.19a.73.73,0,0,1,0,.14.76.76,0,0,1,0,.15h-.42v1.41H10Z"></path><path class="h" d="M11.58,15.54h.29l.66,1.08V15.54h.3v1.7h-.28l-.66-1.08v1.08h-.3Z"></path><path class="h" d="M13.72,15.54h1a.73.73,0,0,1,0,.14.76.76,0,0,1,0,.15h-.62v.37h.49a.79.79,0,0,1,0,.15.78.78,0,0,1,0,.15h-.49v.45h.64a.73.73,0,0,1,0,.14.76.76,0,0,1,0,.15h-1Z"></path><path class="h" d="M15.56,15.54l.19,0H16l.26,0a.69.69,0,0,1,.23.08.47.47,0,0,1,.16.16.5.5,0,0,1,.06.26.53.53,0,0,1,0,.17.51.51,0,0,1-.06.13l-.08.09-.08.06,0,0,.41.72h-.38L16,16.44l.06,0,.08,0,.09-.07a.36.36,0,0,0,.07-.09.31.31,0,0,0-.05-.35.34.34,0,0,0-.22-.07h-.09v1.43h-.35Z"></path><path class="h" d="M17.86,16.45l-.14-.07-.11-.09a.36.36,0,0,1-.07-.12.58.58,0,0,1,0-.38.42.42,0,0,1,.12-.15.51.51,0,0,1,.18-.09.83.83,0,0,1,.24,0l.23,0,.22.06a.84.84,0,0,1-.08.27l-.07,0-.08,0-.09,0H18l-.07,0-.05.06a.19.19,0,0,0,0,.1.17.17,0,0,0,0,.08l0,.05.06,0,.07,0,.14.05.16.07a.44.44,0,0,1,.12.09.39.39,0,0,1,.08.13.58.58,0,0,1,0,.19.54.54,0,0,1,0,.22.47.47,0,0,1-.13.17.6.6,0,0,1-.2.11.89.89,0,0,1-.28,0h-.14l-.12,0-.11,0-.11,0a1,1,0,0,1,0-.14l0-.15.19.06.19,0a.42.42,0,0,0,.23-.06.19.19,0,0,0,.09-.17.2.2,0,0,0,0-.09l-.05-.06-.07,0-.08,0Z"></path><path class="h" d="M20.51,15.54h.35v1.7h-.35Z"></path><path class="h" d="M21.75,15.54H22l.66,1.08V15.54H23v1.7h-.28l-.66-1.08v1.08h-.3Z"></path><path class="h" d="M25,15.54h.35v1.7H25Z"></path><path class="h" d="M26.23,15.54h.29l.66,1.08V15.54h.3v1.7H27.2l-.66-1.08v1.08h-.3Z"></path><path class="h" d="M28.38,15.54h.29l.66,1.08V15.54h.3v1.7h-.28l-.66-1.08v1.08h-.3Z"></path><path class="h" d="M31.21,17.26a.77.77,0,0,1-.33-.07.62.62,0,0,1-.23-.18.79.79,0,0,1-.13-.28,1.31,1.31,0,0,1,0-.35,1.34,1.34,0,0,1,0-.35.8.8,0,0,1,.13-.28.61.61,0,0,1,.23-.18.86.86,0,0,1,.66,0,.61.61,0,0,1,.23.18.8.8,0,0,1,.13.28,1.34,1.34,0,0,1,0,.35,1.32,1.32,0,0,1,0,.35.79.79,0,0,1-.13.28.62.62,0,0,1-.23.18A.77.77,0,0,1,31.21,17.26Zm0-.29q.37,0,.37-.59a.87.87,0,0,0-.09-.44.3.3,0,0,0-.28-.15q-.37,0-.37.59T31.21,17Z"></path><path class="h" d="M32.66,15.54H33l.37,1.34.38-1.34h.36l-.55,1.7h-.39Z"></path><path class="h" d="M35.29,15.54h.39l.53,1.7h-.36l-.09-.34h-.56l-.1.34h-.34Zm.38,1.07-.2-.71-.21.71Z"></path><path class="h" d="M37.3,15.83h-.42a.76.76,0,0,1,0-.15.73.73,0,0,1,0-.14h1.19a.73.73,0,0,1,0,.14.76.76,0,0,1,0,.15h-.42v1.41H37.3Z"></path><path class="h" d="M38.87,15.54h.35v1.7h-.35Z"></path><path class="h" d="M40.81,17.26a.77.77,0,0,1-.33-.07.62.62,0,0,1-.23-.18.79.79,0,0,1-.13-.28,1.31,1.31,0,0,1,0-.35,1.34,1.34,0,0,1,0-.35.8.8,0,0,1,.13-.28.61.61,0,0,1,.23-.18.86.86,0,0,1,.66,0,.61.61,0,0,1,.23.18.8.8,0,0,1,.13.28,1.34,1.34,0,0,1,0,.35,1.32,1.32,0,0,1,0,.35.79.79,0,0,1-.13.28.62.62,0,0,1-.23.18A.77.77,0,0,1,40.81,17.26Zm0-.29q.37,0,.37-.59a.87.87,0,0,0-.09-.44.3.3,0,0,0-.28-.15q-.37,0-.37.59T40.81,17Z"></path><path class="h" d="M42.4,15.54h.29l.66,1.08V15.54h.3v1.7h-.28l-.66-1.08v1.08h-.3Z"></path></g><path class="f" d="M47.6,10.17l.08.07a.22.22,0,0,0,.11,0,.18.18,0,0,0,.12,0,.12.12,0,0,0,0-.1.11.11,0,0,0,0-.09L47.79,10l0,0a.42.42,0,0,1-.14-.08.17.17,0,0,1-.06-.13.16.16,0,0,1,.07-.13.26.26,0,0,1,.16-.05l.13,0,.09.07,0,.05-.07-.05-.1,0a.18.18,0,0,0-.11,0,.09.09,0,0,0,0,.08.11.11,0,0,0,0,.09l.1.05.07,0A.35.35,0,0,1,48,10a.21.21,0,0,1,0,.28.27.27,0,0,1-.17.05h-.08l-.07,0-.06,0-.05,0Z"></path><path class="f" d="M48.48,10.32h-.07l-.19-.55v.55h-.08V9.59h.08l.22.65.22-.65h.08v.74h-.08V9.77Z"></path></g></svg>